<svg width="35" height="35" viewBox="0 0 35 35" fill="none" xmlns="http://www.w3.org/2000/svg">
<g clip-path="url(#clip0_6206_13859)">
<path d="M14.6758 27.5371C12.9785 27.5371 11.5977 28.918 11.5977 30.6153C11.5977 32.3126 12.9785 33.6934 14.6758 33.6934C16.3731 33.6934 17.754 32.3126 17.754 30.6153C17.7539 28.918 16.373 27.5371 14.6758 27.5371ZM14.6758 31.9746C13.9262 31.9746 13.3164 31.3647 13.3164 30.6151C13.3164 29.8655 13.9263 29.2557 14.6758 29.2557C15.4254 29.2557 16.0353 29.8656 16.0353 30.6151C16.0353 31.3648 15.4254 31.9746 14.6758 31.9746Z" fill="#69FEA7"/>
<path d="M25.4727 27.5371C23.7754 27.5371 22.3945 28.918 22.3945 30.6153C22.3945 32.3126 23.7754 33.6934 25.4727 33.6934C27.17 33.6934 28.5509 32.3126 28.5509 30.6153C28.5508 28.918 27.1699 27.5371 25.4727 27.5371ZM25.4727 31.9746C24.7231 31.9746 24.1132 31.3647 24.1132 30.6151C24.1132 29.8655 24.7231 29.2557 25.4727 29.2557C26.2223 29.2557 26.8322 29.8656 26.8322 30.6151C26.8322 31.3648 26.2223 31.9746 25.4727 31.9746Z" fill="#69FEA7"/>
<path d="M26.2309 11.3309H13.916C13.4414 11.3309 13.0566 11.7157 13.0566 12.1903C13.0566 12.6649 13.4414 13.0496 13.916 13.0496H26.2309C26.7055 13.0496 27.0902 12.6649 27.0902 12.1903C27.0902 11.7156 26.7055 11.3309 26.2309 11.3309Z" fill="#69FEA7"/>
<path d="M25.5602 15.7935H14.5859C14.1113 15.7935 13.7266 16.1782 13.7266 16.6528C13.7266 17.1274 14.1113 17.5122 14.5859 17.5122H25.5601C26.0348 17.5122 26.4195 17.1274 26.4195 16.6528C26.4195 16.1783 26.0348 15.7935 25.5602 15.7935Z" fill="#69FEA7"/>
<path d="M34.6133 7.50206C34.2855 7.09984 33.7999 6.86919 33.281 6.86919H6.51319L5.9726 4.24494C5.85974 3.69752 5.48636 3.23787 4.97359 3.01522L1.20172 1.37801C0.766273 1.18886 0.260207 1.38867 0.0713297 1.82399C-0.117753 2.25944 0.0820622 2.76557 0.517307 2.95445L4.28925 4.59173L8.44728 24.7756C8.61107 25.5705 9.319 26.1475 10.1306 26.1475H30.7182C31.1928 26.1475 31.5775 25.7627 31.5775 25.2881C31.5775 24.8135 31.1928 24.4288 30.7182 24.4288H10.1307L9.62491 21.9736H30.8773C31.6889 21.9736 32.3969 21.3966 32.5606 20.6017L34.9643 8.93447C35.069 8.42642 34.941 7.90422 34.6133 7.50206ZM30.8773 20.255H9.27088L6.86729 8.58782L33.2809 8.58789L30.8773 20.255Z" fill="#69FEA7"/>
</g>
<defs>
<clipPath id="clip0_6206_13859">
<rect width="35" height="35" fill="white"/>
</clipPath>
</defs>
</svg>
